<svg width="54" height="54" viewBox="0 0 54 54" fill="none" xmlns="http://www.w3.org/2000/svg">
<path d="M24.5869 12.4272C24.7311 12.7921 24.998 13.0954 25.3417 13.2848C25.6853 13.4742 26.0843 13.538 26.4698 13.4651C26.8554 13.3921 27.2035 13.1871 27.4543 12.8853C27.705 12.5834 27.8427 12.2037 27.8438 11.8112V11.2291C27.3823 11.377 26.9289 11.5488 26.4853 11.7437C25.8719 12.0223 25.2371 12.2509 24.5869 12.4272V12.4272ZM27.8438 15.1862H24.4688C23.798 15.1883 23.1554 15.4556 22.6811 15.9298C22.2068 16.4041 21.9395 17.0468 21.9375 17.7175H30.375C30.373 17.0468 30.1057 16.4041 29.6314 15.9298C29.1571 15.4556 28.5145 15.1883 27.8438 15.1862V15.1862ZM27.7256 9.50781C27.5814 9.14287 27.3145 8.83961 26.9708 8.65018C26.6272 8.46076 26.2282 8.39703 25.8427 8.46995C25.4571 8.54287 25.109 8.74788 24.8582 9.04972C24.6075 9.35155 24.4698 9.73134 24.4688 10.1238V10.7059C24.9302 10.558 25.3836 10.3862 25.8272 10.1912C26.4406 9.91268 27.0754 9.68412 27.7256 9.50781V9.50781ZM37.125 8.43625H40.3312L36.2812 3.8125V7.5925C36.2812 7.81628 36.3701 8.03089 36.5284 8.18912C36.6866 8.34736 36.9012 8.43625 37.125 8.43625ZM48.0938 43.03V51.4675H35.9269L31.5563 43.9075C31.4458 43.7125 31.4167 43.4818 31.4751 43.2655C31.5336 43.0491 31.6749 42.8645 31.8684 42.7516C31.9641 42.696 32.0698 42.6599 32.1795 42.6455C32.2892 42.6312 32.4007 42.6387 32.5075 42.6677C32.6142 42.6968 32.7141 42.7467 32.8014 42.8147C32.8887 42.8827 32.9616 42.9674 33.0159 43.0638L34.7034 45.9831C34.7983 46.1433 34.9424 46.2684 35.1142 46.3399C35.2861 46.4114 35.4764 46.4253 35.6569 46.3797C35.8367 46.3313 35.9954 46.2248 36.1083 46.0767C36.2213 45.9287 36.2821 45.7474 36.2812 45.5612V34.5419C36.2824 34.4345 36.3051 34.3284 36.348 34.2299C36.391 34.1314 36.4532 34.0426 36.5311 33.9686C36.609 33.8946 36.701 33.837 36.8015 33.7993C36.9021 33.7615 37.0092 33.7443 37.1166 33.7487C37.2281 33.7476 37.3387 33.7686 37.442 33.8105C37.5454 33.8524 37.6394 33.9144 37.7186 33.9929C37.7979 34.0713 37.8608 34.1647 37.9037 34.2677C37.9467 34.3706 37.9688 34.481 37.9688 34.5925V43.8737C37.9688 44.0975 38.0576 44.3121 38.2159 44.4704C38.3741 44.6286 38.5887 44.7175 38.8125 44.7175C39.0363 44.7175 39.2509 44.6286 39.4091 44.4704C39.5674 44.3121 39.6562 44.0975 39.6562 43.8737V41.3425C39.6562 41.1187 39.7451 40.9041 39.9034 40.7459C40.0616 40.5876 40.2762 40.4987 40.5 40.4987C40.7238 40.4987 40.9384 40.5876 41.0966 40.7459C41.2549 40.9041 41.3438 41.1187 41.3438 41.3425V43.8737C41.3438 44.0975 41.4326 44.3121 41.5909 44.4704C41.7491 44.6286 41.9637 44.7175 42.1875 44.7175C42.4113 44.7175 42.6259 44.6286 42.7841 44.4704C42.9424 44.3121 43.0312 44.0975 43.0312 43.8737V42.1862C43.0312 41.9625 43.1201 41.7479 43.2784 41.5896C43.4366 41.4314 43.6512 41.3425 43.875 41.3425C44.0988 41.3425 44.3134 41.4314 44.4716 41.5896C44.6299 41.7479 44.7188 41.9625 44.7188 42.1862V43.8737C44.7188 44.0975 44.8076 44.3121 44.9659 44.4704C45.1241 44.6286 45.3387 44.7175 45.5625 44.7175C45.7863 44.7175 46.0009 44.6286 46.1591 44.4704C46.3174 44.3121 46.4062 44.0975 46.4062 43.8737V43.03C46.4062 42.8062 46.4951 42.5916 46.6534 42.4334C46.8116 42.2751 47.0262 42.1862 47.25 42.1862C47.4738 42.1862 47.6884 42.2751 47.8466 42.4334C48.0049 42.5916 48.0938 42.8062 48.0938 43.03Z" fill="#008080"/>
<path d="M37.125 10.125C36.4543 10.123 35.8116 9.85567 35.3373 9.3814C34.8631 8.90713 34.5958 8.26446 34.5938 7.59375V3.375H13.5C12.8293 3.377 12.1866 3.64433 11.7123 4.1186C11.2381 4.59287 10.9708 5.23554 10.9688 5.90625V36.99C11.2974 36.6057 11.7363 36.3317 12.2259 36.2053C12.7089 36.0757 13.2195 36.092 13.6933 36.2523C14.167 36.4126 14.5826 36.7096 14.8877 37.1058C15.1928 37.5021 15.3737 37.9798 15.4075 38.4788C15.4413 38.9778 15.3266 39.4756 15.0778 39.9094L12.8672 43.74L13.7025 44.5753C14.0006 44.8693 14.2587 45.2012 14.4703 45.5625H30.5691L30.0966 44.7525C29.9304 44.4644 29.8225 44.1464 29.7792 43.8166C29.7359 43.4869 29.758 43.1518 29.8442 42.8306C29.9303 42.5094 30.079 42.2082 30.2815 41.9444C30.4841 41.6806 30.7366 41.4593 31.0247 41.2931C31.3128 41.1269 31.6308 41.0191 31.9605 40.9758C32.2903 40.9325 32.6254 40.9545 32.9466 41.0407C33.2678 41.1269 33.5689 41.2755 33.8327 41.4781C34.0965 41.6806 34.3179 41.9332 34.4841 42.2213L34.5938 42.4153V34.5431C34.5949 33.8856 34.8566 33.2553 35.3215 32.7903C35.7865 32.3253 36.4168 32.0636 37.0744 32.0625C37.4104 32.0583 37.7439 32.1205 38.0557 32.2456C38.3676 32.3706 38.6516 32.5561 38.8916 32.7914C39.1315 33.0266 39.3226 33.3069 39.4538 33.6162C39.585 33.9255 39.6538 34.2578 39.6562 34.5938V38.9559C39.9273 38.8606 40.2126 38.8121 40.5 38.8125C40.7882 38.8185 41.0734 38.8726 41.3438 38.9728V10.125H37.125ZM20.25 17.7188C20.2537 16.7983 20.5582 15.9043 21.1173 15.1731C21.6764 14.4419 22.4593 13.9136 23.3466 13.6688C22.9789 13.1194 22.7822 12.4735 22.7812 11.8125V10.125C22.7812 9.22989 23.1368 8.37145 23.7698 7.73851C24.4027 7.10558 25.2611 6.75 26.1562 6.75C27.0514 6.75 27.9098 7.10558 28.5427 7.73851C29.1757 8.37145 29.5312 9.22989 29.5312 10.125V11.8125C29.5303 12.4735 29.3336 13.1194 28.9659 13.6688C29.8532 13.9136 30.6361 14.4419 31.1952 15.1731C31.7543 15.9043 32.0588 16.7983 32.0625 17.7188V18.5625C32.0625 18.7863 31.9736 19.0009 31.8154 19.1591C31.6571 19.3174 31.4425 19.4062 31.2188 19.4062H21.0938C20.87 19.4062 20.6554 19.3174 20.4971 19.1591C20.3389 19.0009 20.25 18.7863 20.25 18.5625V17.7188ZM14.3438 22.7812H16.0312V24.4688H14.3438V22.7812ZM32.9062 37.9688H17.7188V36.2812H32.9062V37.9688ZM32.9062 34.5938H14.3438V32.9062H32.9062V34.5938ZM34.5938 31.2188H14.3438V29.5312H34.5938V31.2188ZM37.9688 27.8438H14.3438V26.1562H37.9688V27.8438ZM37.9688 24.4688H17.7188V22.7812H37.9688V24.4688Z" fill="#008080"/>
<path d="M11.0784 43.4531C10.987 43.6149 10.9508 43.802 10.9751 43.9862C10.9995 44.1704 11.0831 44.3416 11.2134 44.4741L12.5128 45.765C12.8261 46.0787 13.0746 46.451 13.244 46.8607C13.4133 47.2704 13.5003 47.7095 13.5 48.1528V51.4688H5.90625V39.9347C5.91089 38.2924 6.44333 36.6951 7.425 35.3784L9.28125 32.9062V39.825L8.15906 41.7656L9.61875 42.6094L12.15 38.2219C12.2641 38.0301 12.4489 37.8907 12.6647 37.8338C12.8253 37.7904 12.9951 37.7957 13.1527 37.849C13.3103 37.9023 13.4484 38.0013 13.5497 38.1333C13.6509 38.2652 13.7107 38.4243 13.7214 38.5903C13.732 38.7563 13.6932 38.9218 13.6097 39.0656L11.0784 43.4531Z" fill="#008080"/>
</svg>
