<svg width="15" height="16" viewBox="0 0 15 16" fill="none" xmlns="http://www.w3.org/2000/svg">
<path fill-rule="evenodd" clip-rule="evenodd" d="M12.464 13.4476L11.998 13.1792L10.1571 12.1261L7.57049 10.6489L4.98682 12.1261L4.19162 12.582L3.14301 13.1792L2.67696 13.4476V6.28079L7.57049 3.48218L12.464 6.28079V13.4476ZM14.637 14.6882V6.06729C14.6421 5.75412 14.5614 5.44542 14.4034 5.1741C14.2454 4.90278 14.0161 4.679 13.7398 4.52661L7.57049 0.998047L1.40406 4.52661C1.1283 4.67982 0.899223 4.9037 0.740863 5.17477C0.582504 5.44584 0.500691 5.75412 0.504003 6.06729V16.0009H2.56045L3.74014 15.3258L4.5499 14.8642L6.49857 13.7505L7.57049 13.136L7.79186 13.2629L10.594 14.8642L11.4008 15.3258L12.5805 16.0009H14.637V14.6882V14.6882Z" fill="url(#paint0_linear_3215_18864)"/>
<defs>
<linearGradient id="paint0_linear_3215_18864" x1="7.57049" y1="-1.13986" x2="7.57049" y2="10.6576" gradientUnits="userSpaceOnUse">
<stop stop-color="#162238"/>
<stop offset="1" stop-color="#008080"/>
</linearGradient>
</defs>
</svg>
