<svg width="75" height="16" viewBox="0 0 75 16" fill="none" xmlns="http://www.w3.org/2000/svg">
<path fill-rule="evenodd" clip-rule="evenodd" d="M12.464 12.4495L11.998 12.1812L10.1571 11.1281L7.57049 9.65089L4.98682 11.1281L4.19162 11.584L3.14301 12.1812L2.67696 12.4495V5.28275L7.57049 2.48413L12.464 5.28275V12.4495ZM14.637 13.6901V5.06924C14.6421 4.75607 14.5614 4.44737 14.4034 4.17605C14.2454 3.90473 14.0161 3.68095 13.7398 3.52856L7.57049 0L1.40406 3.52856C1.1283 3.68177 0.899223 3.90565 0.740863 4.17672C0.582504 4.4478 0.500691 4.75608 0.504003 5.06924V15.0029H2.56045L3.74014 14.3278L4.5499 13.8661L6.49857 12.7525L7.57049 12.1379L7.79186 12.2649L10.594 13.8661L11.4008 14.3278L12.5805 15.0029H14.637V13.6901V13.6901Z" fill="url(#paint0_linear_3215_51957)"/>
<path fill-rule="evenodd" clip-rule="evenodd" d="M7.79239 8.1853L9.6595 9.2557L11.1946 8.3786L11.8325 8.01219L10.1576 7.05431L7.57101 5.57422L4.98735 7.05431L4.19215 7.50728L3.30957 8.01219L3.94748 8.3786L5.48253 9.2557L6.4991 8.67289L7.57101 8.05835L7.79239 8.1853Z" fill="#008080"/>
<path fill-rule="evenodd" clip-rule="evenodd" d="M7.85587 7.05342L9.72589 8.12093L11.258 7.24384L11.8988 6.87742L10.2211 5.91955L7.63449 4.43945L5.05083 5.91955L4.25563 6.3754L3.37305 6.87742L4.01387 7.24384L5.546 8.12093L6.56258 7.54101L7.63449 6.92647L7.85587 7.05342Z" fill="#008080"/>
<path d="M19.6621 11.9327V3.08098H21.9924L22.0419 4.77169L21.6865 4.83805C21.8089 4.55361 21.9739 4.28905 22.1759 4.05329C22.3782 3.8209 22.6161 3.62133 22.8808 3.46183C23.1541 3.29486 23.4477 3.16301 23.7546 3.06944C24.0492 2.975 24.3567 2.92634 24.6663 2.92518C25.0932 2.91874 25.5173 2.99317 25.9159 3.14446C26.2851 3.28604 26.6112 3.51957 26.8626 3.82247C27.1476 4.18054 27.3549 4.59309 27.4714 5.03424L27.0985 5.00251L27.2179 4.73419C27.3654 4.46462 27.553 4.21856 27.7743 4.00424C28.0023 3.78114 28.2577 3.58728 28.5345 3.4272C28.8098 3.26842 29.1032 3.14252 29.4084 3.05213C29.6982 2.96409 29.9995 2.91841 30.3026 2.91653C30.9119 2.89327 31.5161 3.03491 32.0503 3.32622C32.5243 3.61236 32.8899 4.04539 33.0902 4.55819C33.3395 5.20205 33.4573 5.88852 33.4368 6.57781V11.9327H31.0308V6.73938C31.0428 6.40157 30.9853 6.06488 30.8619 5.74977C30.7645 5.511 30.5931 5.30898 30.3725 5.17273C30.1194 5.03602 29.8334 4.97019 29.5453 4.98231C29.3007 4.97923 29.0577 5.0213 28.8287 5.10637C28.6132 5.18499 28.4153 5.30456 28.2462 5.45836C28.092 5.60585 27.9692 5.78243 27.885 5.97769C27.7895 6.18424 27.7389 6.40835 27.7364 6.63551V11.9327H25.3392V6.71341C25.3479 6.39003 25.2873 6.06849 25.1615 5.76996C25.0583 5.52749 24.885 5.3207 24.6634 5.17562C24.4226 5.03636 24.1469 4.96735 23.8682 4.97654C23.6237 4.97346 23.3807 5.01553 23.1517 5.1006C22.9354 5.17753 22.7371 5.2973 22.5691 5.45259C22.4112 5.60409 22.2829 5.78306 22.1904 5.98058C22.0975 6.18634 22.0527 6.41021 22.0594 6.63551V11.9327H19.6621Z" fill="#162238"/>
<path d="M39.0553 12.1014C38.3391 12.11 37.6375 11.9005 37.0455 11.5012C36.4371 11.0849 35.9483 10.5192 35.6269 9.85958C35.2662 9.11988 35.0866 8.3064 35.1026 7.48509C35.0859 6.66459 35.2687 5.85215 35.6357 5.11636C35.9686 4.45756 36.4709 3.8973 37.0921 3.49201C37.7111 3.09959 38.4341 2.8987 39.1689 2.91498C39.5798 2.91043 39.9885 2.97481 40.3777 3.1054C40.7262 3.22582 41.0513 3.40439 41.3389 3.63339C41.6122 3.85225 41.849 4.11218 42.0409 4.40373C42.2302 4.68452 42.3682 4.99604 42.4487 5.3241L41.9419 5.24043V3.08232H44.3246V11.934H41.8953V9.81053L42.4342 9.7586C42.3412 10.0775 42.1934 10.3781 41.9972 10.6472C41.7873 10.9335 41.5327 11.1848 41.2428 11.3916C40.9357 11.6132 40.597 11.7882 40.2379 11.9109C39.8572 12.0395 39.4575 12.1039 39.0553 12.1014V12.1014ZM39.7165 10.0442C40.1332 10.0527 40.5437 9.94252 40.8991 9.72686C41.2407 9.50848 41.5125 9.19825 41.6827 8.83246C41.881 8.41081 41.9806 7.95021 41.9739 7.48509C41.9801 7.02743 41.8804 6.57444 41.6827 6.1608C41.5092 5.79712 41.2382 5.48771 40.8991 5.26639C40.5456 5.04539 40.1344 4.93203 39.7165 4.94037C39.304 4.93131 38.8982 5.04486 38.5514 5.26639C38.2145 5.49011 37.944 5.79888 37.7678 6.1608C37.5674 6.57356 37.4677 7.02716 37.4766 7.48509C37.4671 7.95048 37.5668 8.4117 37.7678 8.83246C37.9408 9.19646 38.2119 9.506 38.5514 9.72686C38.9001 9.94312 39.3052 10.0535 39.7165 10.0442V10.0442Z" fill="#162238"/>
<path d="M46.71 11.9322V3.08046H49.0082L49.0752 4.88946L48.6004 5.08853C48.7318 4.67587 48.9605 4.30008 49.2674 3.99217C49.6006 3.6559 49.9962 3.3865 50.4325 3.19875C50.8789 3.0026 51.3628 2.90418 51.8511 2.91023C52.4433 2.8895 53.0302 3.02809 53.5492 3.31127C54.0169 3.59334 54.3789 4.01877 54.5804 4.52304C54.8272 5.16048 54.944 5.84004 54.9241 6.52246V11.9322H52.5268V6.69557C52.538 6.35313 52.4805 6.0119 52.3579 5.69153C52.2592 5.44115 52.0774 5.23153 51.8423 5.09719C51.5796 4.96292 51.2829 4.90776 50.9889 4.93851C50.7331 4.93694 50.4789 4.9789 50.2374 5.06257C50.0206 5.14265 49.8225 5.26532 49.6548 5.42321C49.4927 5.57631 49.3612 5.75839 49.2674 5.95986C49.1699 6.16357 49.1201 6.38647 49.1218 6.6119V11.9322H46.7245H46.71Z" fill="#162238"/>
<path d="M61.091 12.1002C60.2968 12.1159 59.5135 11.9151 58.8267 11.5197C58.1399 11.1244 57.576 10.5497 57.1966 9.8584C56.8002 9.13463 56.5995 8.32162 56.614 7.49834C56.6019 6.67899 56.8025 5.87031 57.1966 5.14981C57.5735 4.45585 58.1367 3.87849 58.8239 3.48139C59.511 3.08429 60.2956 2.88288 61.091 2.89937C61.8456 2.89023 62.5937 3.03765 63.2873 3.33215C63.9061 3.5877 64.4436 4.00444 64.8427 4.53815L63.5232 6.11057C63.3595 5.89025 63.1631 5.69571 62.9406 5.53354C62.7061 5.36188 62.4482 5.22395 62.1746 5.12384C61.9013 5.02404 61.6123 4.97324 61.3211 4.97381C60.8893 4.96452 60.4639 5.07764 60.0948 5.29984C59.7403 5.51839 59.4516 5.8273 59.2588 6.19424C59.0544 6.59842 58.9544 7.04647 58.9676 7.49834C58.9585 7.94478 59.0659 8.38599 59.2792 8.77935C59.4808 9.14789 59.7747 9.45887 60.1327 9.68241C60.4948 9.91251 60.9172 10.0319 61.3473 10.0257C61.6289 10.0281 61.9091 9.98626 62.1775 9.90168C62.4381 9.81361 62.6829 9.68505 62.9028 9.52084C63.1398 9.34882 63.3524 9.146 63.5349 8.91784L64.8369 10.4931C64.4108 11.0005 63.8658 11.3967 63.2494 11.6472C62.5702 11.9471 61.8347 12.1015 61.091 12.1002V12.1002Z" fill="#162238"/>
<path d="M70.6155 12.1006C69.735 12.1251 68.8627 11.9265 68.0813 11.5236C67.3795 11.1537 66.7947 10.5984 66.3919 9.91944C65.9771 9.20813 65.7666 8.39798 65.7831 7.57668C65.7747 6.936 65.8894 6.29958 66.121 5.70132C66.3337 5.15033 66.6556 4.64708 67.0677 4.22123C67.479 3.79962 67.9752 3.46836 68.5241 3.24892C69.1003 3.01778 69.7171 2.90207 70.3388 2.90847C70.9185 2.90195 71.4934 3.0129 72.0282 3.2345C72.5364 3.444 72.994 3.75766 73.371 4.15487C73.7546 4.55708 74.0518 5.03211 74.2449 5.55129C74.4403 6.11281 74.5235 6.70669 74.4895 7.2997V8.03542H67.3036L66.9162 6.57841H72.5088L72.2379 6.88135V6.51205C72.22 6.21734 72.1191 5.9335 71.9466 5.69266C71.778 5.44678 71.5483 5.24806 71.2796 5.11563C70.9956 4.97933 70.6835 4.91019 70.3679 4.91367C69.9303 4.90031 69.4967 4.99972 69.1096 5.20219C68.7645 5.3915 68.4891 5.68449 68.3231 6.03888C68.1313 6.45896 68.0387 6.91678 68.0522 7.3776C68.0401 7.8626 68.1598 8.34192 68.3988 8.76537C68.6287 9.15701 68.9688 9.47383 69.3775 9.67708C69.8423 9.90503 70.3563 10.017 70.8747 10.0031C71.2431 10.0075 71.6092 9.9459 71.9554 9.82134C72.3362 9.66575 72.6893 9.45046 73.0011 9.18372L74.1516 10.7734C73.826 11.0636 73.4626 11.3091 73.071 11.5034C72.6826 11.6941 72.2743 11.8421 71.8534 11.9448C71.4487 12.0461 71.033 12.0984 70.6155 12.1006V12.1006Z" fill="#162238"/>
<defs>
<linearGradient id="paint0_linear_3215_51957" x1="7.57049" y1="-2.13791" x2="7.57049" y2="9.65955" gradientUnits="userSpaceOnUse">
<stop stop-color="#162238"/>
<stop offset="1" stop-color="#008080"/>
</linearGradient>
</defs>
</svg>
