<svg width="45" height="47" viewBox="0 0 45 47" fill="none" xmlns="http://www.w3.org/2000/svg">
<path d="M31.2544 40.8152L31.5789 35.2397C33.2604 32.9977 36.3579 29.0447 38.7474 26.0357V26.2127C38.7531 26.9127 38.7136 27.6123 38.6294 28.3072C38.5815 28.694 38.6877 29.084 38.9251 29.3931C39.1624 29.7023 39.5119 29.9056 39.8979 29.9592H40.0749C40.4376 29.9631 40.7889 29.8326 41.0612 29.593C41.3335 29.3533 41.5076 29.0215 41.5499 28.6612C41.6448 27.8484 41.6941 27.031 41.6974 26.2127C41.7119 25.0344 41.6031 23.8578 41.3729 22.7022C42.1104 21.7582 42.5529 21.1977 42.5529 21.1977C42.751 20.941 42.861 20.6271 42.8663 20.3028C42.8716 19.9786 42.772 19.6613 42.5824 19.3982L39.6619 15.5337C39.5256 15.3587 39.351 15.2172 39.1516 15.12C38.9522 15.0229 38.7332 14.9727 38.5114 14.9732C38.3815 14.9761 38.2526 14.9959 38.1279 15.0322L38.0947 15.0448C36.4101 12.674 34.2104 10.7156 31.6607 9.31629C29.1111 7.91702 26.2776 7.11331 23.373 6.96544C23.1787 6.95229 22.9837 6.97847 22.7997 7.04241C22.6157 7.10636 22.4465 7.20676 22.3022 7.3376C22.1579 7.46844 22.0415 7.62704 21.9599 7.80391C21.8783 7.98079 21.8333 8.1723 21.8274 8.36699C21.8179 8.5605 21.8467 8.75398 21.912 8.93638C21.9773 9.11878 22.0779 9.28653 22.2081 9.43005C22.3382 9.57357 22.4954 9.69005 22.6705 9.77284C22.8457 9.85563 23.0354 9.9031 23.229 9.91255C25.7749 10.0443 28.2545 10.7703 30.4695 12.0324C32.6844 13.2945 34.5731 15.0577 35.9843 17.1808C33.7065 20.1759 31.1873 22.9796 28.452 25.5637C26.8121 26.953 24.6967 27.6511 22.552 27.5107H22.4045C20.2241 27.6492 18.0726 26.9531 16.3865 25.5637C13.6533 22.9735 11.1281 20.1722 8.83452 17.1857C9.22462 16.5674 9.66886 15.9849 10.162 15.4452C10.2891 15.3005 10.3862 15.132 10.4476 14.9494C10.5091 14.7669 10.5337 14.574 10.5199 14.3819C10.5062 14.1897 10.4545 14.0023 10.3677 13.8303C10.2809 13.6584 10.1609 13.5054 10.0145 13.3802C9.87334 13.248 9.70679 13.1459 9.52496 13.08C9.34314 13.0141 9.14982 12.9858 8.95674 12.9968C8.76366 13.0079 8.57483 13.058 8.40169 13.1442C8.22856 13.2303 8.07472 13.3508 7.94952 13.4982C7.50702 13.9997 7.12352 14.5012 6.74002 15.0322C6.61487 14.9982 6.48628 14.9784 6.3567 14.9732C6.13177 14.979 5.91055 15.0319 5.70731 15.1284C5.50407 15.225 5.32331 15.363 5.1767 15.5337L2.2562 19.3982C2.06656 19.6613 1.96698 19.9786 1.9723 20.3028C1.97761 20.6271 2.08754 20.941 2.2857 21.1977L3.4657 22.7022C3.23396 23.8576 3.12519 25.0343 3.1412 26.2127C3.13291 29.9312 4.20454 33.5721 6.22594 36.6933C8.24734 39.8144 11.1315 42.2814 14.5282 43.7947C14.5577 43.7947 14.5872 43.8242 14.6167 43.8242C17.0687 44.9324 19.7286 45.5056 22.4194 45.5056C25.1103 45.5056 27.7702 44.9324 30.2222 43.8242C30.2517 43.8242 30.2812 43.7947 30.3107 43.7947C30.6057 43.6767 30.8712 43.5587 31.1662 43.4112C31.5076 43.2282 31.7654 42.9208 31.8863 42.5528C32.0071 42.1848 31.9817 41.7844 31.8152 41.4347C31.6943 41.1768 31.499 40.9611 31.2544 40.8152ZM6.09087 26.2127V26.0357C8.53937 29.1037 11.6074 32.9977 13.2594 35.2397L13.5249 39.9007C11.2393 38.4234 9.36109 36.3962 8.0623 34.0047C6.7635 31.6133 6.08568 28.9341 6.09096 26.2127H6.09087ZM6.79651 41.6943C6.79648 41.9901 6.70744 42.2791 6.54098 42.5237C6.37451 42.7682 6.13831 42.957 5.8631 43.0656C5.84006 43.0757 4.9153 43.479 4.9153 44.2582C4.9153 44.6494 4.75989 45.0246 4.48328 45.3012C4.20666 45.5778 3.83149 45.7333 3.4403 45.7333C3.0491 45.7333 2.67393 45.5778 2.39731 45.3012C2.1207 45.0246 1.9653 44.6494 1.9653 44.2582C1.9653 43.4761 1.02613 43.0699 1.01749 43.0656C0.743436 42.9574 0.508052 42.7696 0.341676 42.5265C0.175299 42.2833 0.0855537 41.9959 0.0840048 41.7013C0.0824558 41.4067 0.169174 41.1184 0.332985 40.8735C0.496796 40.6286 0.730192 40.4384 1.00309 40.3273C1.06504 40.3014 1.9653 39.8996 1.9653 39.1318C1.9653 38.7406 2.1207 38.3654 2.39731 38.0888C2.67393 37.8122 3.0491 37.6568 3.4403 37.6568C3.83149 37.6568 4.20666 37.8122 4.48328 38.0888C4.75989 38.3654 4.9153 38.7406 4.9153 39.1318C4.9153 39.9139 5.85301 40.3187 5.8631 40.3216C6.13841 40.4304 6.37463 40.6195 6.5411 40.8643C6.70757 41.1091 6.79659 41.3983 6.7966 41.6943H6.79651ZM8.39187 7.86369C8.38884 7.57145 8.47469 7.28519 8.63804 7.04285C8.80139 6.80051 9.03452 6.61352 9.30655 6.50669C10.2516 6.13453 11.0748 5.50719 11.6842 4.69461C12.2936 3.88204 12.6654 2.91617 12.758 1.90469C12.758 1.51349 12.9134 1.13832 13.1901 0.861705C13.4667 0.585088 13.8419 0.429688 14.233 0.429688C14.6242 0.429688 14.9994 0.585088 15.276 0.861705C15.5526 1.13832 15.708 1.51349 15.708 1.90469C15.8007 2.91617 16.1725 3.88204 16.7819 4.69461C17.3913 5.50719 18.2145 6.13453 19.1595 6.50669C19.4316 6.61354 19.6647 6.80053 19.828 7.04287C19.9913 7.28521 20.0771 7.57146 20.074 7.86369C20.0776 8.15971 19.9924 8.45001 19.8294 8.69715C19.6664 8.94428 19.4331 9.13691 19.1595 9.25019C18.2116 9.60928 17.3845 10.2291 16.7738 11.0382C16.1631 11.8473 15.7936 12.8126 15.708 13.8227C15.708 14.2139 15.5526 14.5891 15.276 14.8657C14.9994 15.1423 14.6242 15.2977 14.233 15.2977C13.8419 15.2977 13.4667 15.1423 13.1901 14.8657C12.9134 14.5891 12.758 14.2139 12.758 13.8227C12.6725 12.8126 12.303 11.8473 11.6923 11.0382C11.0816 10.2291 10.2545 9.60928 9.30655 9.25019C9.03538 9.1336 8.80427 8.94019 8.64174 8.69381C8.4792 8.44743 8.39234 8.15885 8.39187 7.86369V7.86369ZM21.9029 13.7342H22.9354C23.6328 13.7337 24.3235 13.8708 24.9679 14.1375C25.6124 14.4042 26.1979 14.7953 26.6911 15.2885C27.1843 15.7816 27.5754 16.3672 27.8421 17.0116C28.1088 17.6561 28.2458 18.3467 28.2454 19.0442V21.0207C28.2413 22.4277 27.6805 23.7759 26.6856 24.7709C25.6906 25.7658 24.3424 26.3266 22.9354 26.3307H21.9029C20.4958 26.3266 19.1476 25.7658 18.1527 24.7709C17.1578 23.7759 16.597 22.4277 16.5929 21.0207V19.0442C16.5924 18.3467 16.7295 17.656 16.9962 17.0116C17.2629 16.3672 17.654 15.7816 18.1472 15.2884C18.6403 14.7953 19.2259 14.4042 19.8703 14.1375C20.5148 13.8708 21.2055 13.7337 21.9029 13.7342H21.9029ZM44.9129 39.1337C44.9082 39.4281 44.8159 39.7144 44.6478 39.956C44.4797 40.1977 44.2434 40.3839 43.969 40.4907C43.0239 40.8628 42.2008 41.4901 41.5913 42.3027C40.9819 43.1153 40.6101 44.0812 40.5175 45.0927C40.5164 45.4835 40.3606 45.858 40.0843 46.1344C39.8079 46.4108 39.4334 46.5666 39.0425 46.5677C38.6533 46.5615 38.2817 46.4041 38.0064 46.1288C37.7311 45.8535 37.5737 45.482 37.5675 45.0927C37.4736 44.0857 37.1048 43.1238 36.5013 42.3122C35.8978 41.5007 35.0829 40.8705 34.1455 40.4907C33.8702 40.3854 33.6329 40.1996 33.4645 39.9576C33.2961 39.7156 33.2045 39.4285 33.2015 39.1337C33.204 38.8351 33.295 38.5439 33.463 38.2971C33.6311 38.0503 33.8686 37.8589 34.1455 37.7472C34.7789 37.4635 35.3658 37.0856 35.886 36.6263C36.4042 36.2113 36.8238 35.6864 37.1146 35.0895C37.4054 34.4927 37.5601 33.8387 37.5675 33.1748C37.5687 32.784 37.7245 32.4095 38.0009 32.1331C38.2772 31.8568 38.6517 31.701 39.0425 31.6998C39.2368 31.6979 39.4294 31.7348 39.6093 31.8082C39.7891 31.8817 39.9524 31.9902 40.0898 32.1276C40.2271 32.2649 40.3357 32.4283 40.4092 32.6081C40.4826 32.7879 40.5195 32.9806 40.5175 33.1748C40.603 34.1849 40.9725 35.1503 41.5832 35.9593C42.1939 36.7684 43.021 37.3883 43.969 37.7473C44.2435 37.8625 44.4787 38.0547 44.6462 38.3007C44.8138 38.5468 44.9064 38.8361 44.9129 39.1337Z" fill="#008080"/>
</svg>
