<svg width="64" height="64" viewBox="0 0 64 64" fill="none" xmlns="http://www.w3.org/2000/svg">
<path d="M40.3004 50.0768C40.1004 50.6768 39.7004 50.8768 39.1004 50.7768C38.6004 50.6768 38.2004 50.2768 37.9004 49.8768C37.8004 49.7768 37.8004 49.6768 37.7004 49.5768C37.9004 44.3768 37.8004 40.4768 37.8004 39.8768C37.7004 37.8768 37.4004 36.2768 37.0004 36.2768C36.7004 36.2768 36.5004 37.8768 36.5004 39.8768C36.5004 40.5768 36.8004 47.6768 36.3004 55.4768C36.2004 56.3768 36.2004 57.3768 36.1004 58.1768C36.1004 58.5768 36.0004 59.0768 36.0004 59.4768C36.0004 59.6768 36.0004 59.8768 35.9004 60.0768V60.5768C35.8004 61.1768 35.2004 61.4768 34.7004 61.4768C34.2004 61.4768 33.8004 61.1768 33.5004 60.6768C32.8004 59.6768 32.5004 58.6768 32.4004 57.9768C32.3004 57.2768 32.2004 56.6768 32.2004 56.5768C32.2004 56.1768 32.1004 55.6768 32.1004 55.3768C32.2004 53.0768 32.3004 51.5768 32.3004 51.1768C32.5004 47.9768 32.3004 45.4768 32.0004 45.4768C31.7004 45.4768 31.3004 47.9768 31.1004 51.1768C31.1004 51.7768 30.9004 54.8768 30.7004 59.2768C30.6004 60.3768 30.8004 61.7768 30.2004 62.4768C30.0004 62.7768 29.5004 62.8768 29.0004 62.6768C28.6004 62.5768 28.2004 62.1768 28.0004 61.5768C27.0004 59.1768 26.8004 56.0768 27.0004 53.0768C27.2004 50.1768 27.6004 47.3768 27.8004 44.6768C28.0004 42.0768 27.8004 39.5768 27.3004 37.4768C26.3004 33.3768 24.7004 30.9768 24.5004 30.4768C23.0004 27.9768 21.1004 26.3768 20.6004 26.2768C20.0004 25.3768 19.2004 23.8768 18.8004 22.0768C18.8004 21.7768 18.4004 20.8768 18.5004 19.5768C18.6004 18.9768 19.0004 18.2768 19.6004 17.9768C20.2004 17.6768 21.1004 18.0768 21.7004 18.9768C22.3004 19.8768 22.7004 21.1768 23.4004 22.3768C24.2004 23.5768 25.1004 24.7768 26.3004 25.7768C27.5004 26.7768 28.9004 27.5768 30.5004 28.1768C32.1004 28.7768 33.8004 28.8768 35.4004 29.2768C36.9004 29.5768 38.3004 30.0768 39.2004 31.1768C40.1004 32.1768 40.4004 33.5768 40.5004 34.9768C40.6004 36.2768 40.6004 37.6768 40.6004 38.8768V42.3768C40.5004 46.6768 40.7004 49.7768 40.3004 50.0768V50.0768ZM34.5004 23.0768C33.9004 23.7768 32.8004 24.0768 32.0004 24.1768C31.2004 24.2768 30.5004 24.1768 30.1004 23.8768C29.7004 23.6768 29.6004 23.4768 29.5004 23.3768C29.2004 22.9768 29.0004 22.4768 29.0004 22.0768V21.6768C29.2004 21.2768 29.2004 20.3768 29.3004 19.2768C29.3004 19.1768 29.3004 18.7768 29.5004 18.2768C29.6004 17.7768 30.0004 17.0768 30.6004 16.5768C31.2004 16.0768 32.3004 16.0768 33.2004 16.6768C34.1004 17.2768 34.6004 18.4768 34.9004 19.7768C35.1004 21.1768 35.1004 22.3768 34.5004 23.0768V23.0768ZM17.3004 47.1768C17.2004 48.2768 17.1004 49.0768 16.8004 49.5768C16.6004 50.0768 16.4004 50.2768 16.3004 50.3768C16.0004 50.6768 15.3004 50.6768 15.0004 50.5768C14.9004 50.5768 14.9004 50.4768 14.8004 50.4768C14.6004 45.6768 14.2004 42.0768 14.1004 41.5768C13.9004 39.9768 13.4004 38.6768 13.1004 38.6768C12.8004 38.7768 12.7004 40.0768 12.9004 41.6768C13.0004 42.2768 13.8004 47.9768 13.9004 54.3768C13.9004 55.8768 13.9004 57.3768 13.8004 58.6768C13.6004 59.9768 13.2004 61.0768 12.7004 61.8768C12.2004 62.5768 11.4004 62.9768 10.9004 62.9768C10.4004 62.9768 10.2004 62.8768 10.1004 62.7768C9.80043 62.5768 9.60043 62.1768 9.50043 61.7768V61.3768C9.50043 60.4768 9.40043 59.7768 9.40043 58.9768C9.20043 56.1768 9.00043 54.2768 9.00043 53.7768C8.80043 51.5768 8.40043 49.7768 8.10043 49.7768C7.80043 49.7768 7.60043 51.5768 7.80043 53.8768C7.80043 54.2768 8.00043 56.4768 8.30043 59.5768C8.40043 60.3768 8.50043 61.2768 8.40043 61.9768C8.30043 62.6768 7.80043 63.1768 7.00043 63.0768C5.30043 62.7768 4.40043 60.6768 4.20043 58.6768C4.00043 56.6768 4.10043 54.6768 4.10043 52.8768C4.20043 51.0768 4.30043 49.3768 4.40043 47.9768C4.60043 45.0768 4.90043 43.1768 4.90043 42.7768C5.10043 40.5768 5.20043 38.7768 4.80043 38.6768C4.50043 38.5768 3.90043 40.3768 3.70043 42.5768C3.70043 42.9768 3.40043 45.1768 3.20043 48.2768C3.20043 48.9768 3.10043 49.6768 3.10043 50.3768C3.10043 50.4768 3.00043 50.5768 2.90043 50.5768C2.70043 50.6768 2.50043 50.6768 2.20043 50.6768C1.90043 50.5768 1.80043 50.5768 1.50043 50.2768C1.40043 50.1768 1.20043 49.8768 1.00043 49.1768C0.800428 48.4768 0.700428 47.3768 0.600428 46.0768C0.300428 43.5768 -0.399572 40.1768 0.200428 36.7768C0.500428 35.1768 1.10043 33.6768 2.00043 32.5768C2.80043 31.4768 3.90043 30.7768 4.90043 30.3768C7.00043 29.5768 8.60043 29.7768 8.90043 29.7768H9.10043C9.40043 29.9768 10.5004 29.7768 11.8004 30.0768C12.0004 30.1768 13.6004 30.2768 15.2004 31.7768C16.0004 32.4768 16.7004 33.5768 17.2004 34.8768C17.7004 36.1768 18.0004 37.6768 18.0004 39.2768C18.0004 42.2768 17.5004 45.0768 17.3004 47.1768V47.1768ZM6.90043 19.2768C7.00043 19.1768 7.30043 18.9768 7.80043 18.7768C8.30043 18.5768 9.20043 18.4768 10.1004 18.7768C11.0004 19.0768 12.0004 19.8768 12.5004 20.9768C13.1004 22.0768 13.4004 23.6768 12.6004 24.6768C12.3004 25.0768 11.7004 25.3768 11.0004 25.5768C10.4004 25.7768 9.70043 25.9768 9.10043 25.9768C7.90043 26.0768 6.80043 25.8768 6.00043 25.4768C5.20043 25.0768 4.70043 24.4768 4.50043 23.9768C4.30043 23.4768 4.20043 23.1768 4.20043 23.0768C4.10043 22.3768 4.20043 21.7768 4.30043 21.2768C5.10043 20.7768 6.10043 19.8768 6.90043 19.2768V19.2768ZM51.0004 21.1768C51.1004 21.1768 51.1004 21.1768 51.0004 21.1768C51.4004 21.1768 51.7004 20.0768 52.8004 19.2768C52.9004 19.1768 53.2004 18.9768 53.7004 18.7768C54.2004 18.5768 55.1004 18.4768 56.0004 18.7768C56.9004 19.0768 57.9004 19.8768 58.4004 20.9768C59.0004 22.0768 59.3004 23.6768 58.5004 24.6768C58.2004 25.0768 57.6004 25.3768 56.9004 25.5768C56.3004 25.7768 55.6004 25.9768 55.0004 25.9768C53.8004 26.0768 52.7004 25.8768 51.9004 25.4768C51.1004 25.0768 50.6004 24.4768 50.4004 23.9768C50.2004 23.4768 50.1004 23.1768 50.1004 23.0768C50.3004 22.2768 50.7004 21.6768 51.0004 21.1768V21.1768ZM63.3004 47.1768C63.2004 48.2768 63.1004 49.0768 62.8004 49.5768C62.6004 50.0768 62.4004 50.2768 62.3004 50.3768C62.0004 50.6768 61.3004 50.6768 61.0004 50.5768C60.9004 50.5768 60.9004 50.4768 60.8004 50.4768C60.6004 45.6768 60.2004 42.0768 60.1004 41.5768C59.9004 39.9768 59.4004 38.6768 59.1004 38.6768C58.8004 38.7768 58.7004 40.0768 58.9004 41.6768C59.0004 42.2768 59.8004 47.9768 59.9004 54.3768C59.9004 55.8768 59.9004 57.3768 59.8004 58.6768C59.6004 59.9768 59.2004 61.0768 58.7004 61.8768C58.2004 62.5768 57.4004 62.9768 56.9004 62.9768C56.4004 62.9768 56.2004 62.8768 56.1004 62.7768C55.8004 62.5768 55.6004 62.1768 55.5004 61.7768V61.3768C55.5004 60.4768 55.4004 59.7768 55.4004 58.9768C55.2004 56.0768 55.0004 54.1768 55.0004 53.7768C54.8004 51.5768 54.4004 49.7768 54.1004 49.7768C53.8004 49.7768 53.6004 51.5768 53.8004 53.8768C53.8004 54.2768 54.0004 56.4768 54.3004 59.5768C54.4004 60.3768 54.5004 61.2768 54.4004 61.9768C54.3004 62.6768 53.8004 63.1768 53.0004 63.0768C51.3004 62.7768 50.4004 60.6768 50.2004 58.6768C50.0004 56.6768 50.1004 54.6768 50.1004 52.8768C50.2004 51.0768 50.3004 49.3768 50.4004 47.9768C50.6004 45.0768 50.9004 43.1768 50.9004 42.7768C51.1004 40.5768 51.2004 38.7768 50.8004 38.6768C50.5004 38.5768 49.9004 40.3768 49.7004 42.5768C49.7004 42.9768 49.4004 45.1768 49.2004 48.2768C49.2004 48.9768 49.1004 49.6768 49.1004 50.3768C49.0004 50.3768 49.0004 50.4768 48.9004 50.4768C48.7004 50.5768 48.5004 50.5768 48.2004 50.5768C47.9004 50.4768 47.8004 50.4768 47.5004 50.1768C47.4004 50.0768 47.2004 49.7768 47.0004 49.0768C46.8004 48.3768 46.7004 47.2768 46.6004 45.9768C46.3004 43.4768 45.6004 40.0768 46.2004 36.6768C46.5004 35.0768 47.1004 33.5768 47.9004 32.4768C48.7004 31.3768 49.8004 30.6768 50.8004 30.2768C52.9004 29.4768 54.4004 29.6768 54.7004 29.6768H54.9004C55.2004 29.8768 56.3004 29.6768 57.6004 29.9768C57.8004 30.0768 59.4004 30.1768 61.0004 31.6768C61.8004 32.3768 62.5004 33.4768 63.0004 34.7768C63.5004 36.0768 63.8004 37.5768 63.8004 39.1768C64.0004 42.2768 63.5004 45.0768 63.3004 47.1768V47.1768ZM20.3004 0.0768168C20.6004 0.0768168 20.9004 0.876817 20.8004 1.77682C20.8004 2.07682 20.5004 5.07682 20.3004 8.57682C20.1004 12.2768 20.2004 15.5768 20.2004 15.8768C20.2004 16.7768 19.9004 17.5768 19.6004 17.5768C19.3004 17.5768 19.0004 16.7768 19.0004 15.8768C19.0004 15.5768 19.1004 12.5768 19.2004 9.07682C19.4004 5.37682 19.5004 2.07682 19.5004 1.77682C19.6004 0.776817 20.0004 -0.0231832 20.3004 0.0768168V0.0768168ZM32.4004 6.67682C31.6004 6.77682 30.7004 6.97682 29.8004 7.07682C26.4004 7.57682 23.3004 7.97682 20.9004 8.37682C21.1004 5.77682 21.2004 4.17682 21.2004 3.77682C21.2004 2.57682 21.3004 1.57682 21.3004 0.876817H22.8004C23.1004 0.876817 24.6004 0.776817 26.7004 0.676817C27.8004 0.676817 29.0004 0.676817 30.4004 0.776817H30.7004L30.6004 0.876817C30.2004 1.17682 29.9004 1.57682 29.5004 1.87682C27.8004 3.47682 26.2004 4.97682 25.1004 5.97682L32.9004 6.57682C32.7004 6.57682 32.6004 6.57682 32.4004 6.67682V6.67682Z" fill="#008080"/>
</svg>
