<svg width="72" height="57" viewBox="0 0 72 57" fill="none" xmlns="http://www.w3.org/2000/svg">
<path d="M54.8663 29.2065C53.3512 34.0053 48.3703 36.6552 43.741 35.1253C39.1116 33.5955 36.587 28.4653 38.1021 23.6665C39.6172 18.8678 44.5981 16.2179 49.2274 17.7477C53.8568 19.2776 56.3814 24.4077 54.8663 29.2065ZM28.5602 20.8547C28.1532 22.144 28.7846 23.5394 29.9992 24.0356L30.7273 24.3328C31.7577 24.7539 32.3682 25.8404 32.4021 26.9911C32.4157 27.4474 32.4498 27.9006 32.5042 28.3495C32.6416 29.4823 32.2095 30.6447 31.267 31.2306L30.485 31.7168C29.3719 32.4087 28.966 33.8795 29.5567 35.0797L29.6832 35.3368C30.2738 36.537 31.6584 37.0552 32.8493 36.5214L33.5752 36.1961C34.605 35.7346 35.7894 36.0734 36.5925 36.8872C36.9896 37.2895 37.4114 37.6689 37.857 38.0222C38.7408 38.7228 39.236 39.8769 38.9604 40.9966L38.7554 41.8293C38.4319 43.1438 39.1509 44.4926 40.3947 44.9037L40.6842 44.9992C41.9108 45.4045 43.2307 44.7589 43.7127 43.518L44.0238 42.7167C44.4396 41.6459 45.4949 41.0211 46.6053 41.0026C47.163 40.9935 47.7169 40.9492 48.2643 40.8725C49.3569 40.7191 50.4817 41.167 51.0487 42.1501L51.5122 42.9538C52.1783 44.109 53.5916 44.5297 54.7448 43.9162L55.0387 43.7598C56.1919 43.1463 56.6908 41.7083 56.1795 40.4708L55.8612 39.701C55.4189 38.6301 55.7455 37.3996 56.5311 36.5682C56.9178 36.1589 57.2831 35.7244 57.6241 35.2664C58.2923 34.3686 59.3804 33.866 60.4405 34.1372L61.0515 34.2936C62.3013 34.6131 63.5771 33.8777 63.9785 32.6063L64.0734 32.3063C64.4804 31.017 63.849 29.6216 62.6345 29.1254L62.2462 28.9668C61.1916 28.5361 60.5796 27.4105 60.5726 26.2325C60.5688 25.5689 60.5204 24.9109 60.4301 24.2625C60.2698 23.1125 60.6991 21.9214 61.6582 21.3252L62.4391 20.8396C63.5521 20.1477 63.958 18.677 63.3674 17.4767L63.2409 17.2197C62.6503 16.0195 61.2656 15.5013 60.0748 16.0351L59.1617 16.4443C58.1505 16.8975 56.9878 16.579 56.1845 15.7958C55.7894 15.4105 55.3708 15.0476 54.9299 14.7096C54.0212 14.0133 53.5061 12.843 53.7861 11.7058L53.8782 11.3316C54.2017 10.0171 53.4827 8.66841 52.2389 8.25731L51.9494 8.16177C50.7229 7.75645 49.4029 8.40205 48.9209 9.64297L48.7201 10.1604C48.3095 11.2176 47.274 11.8416 46.1779 11.8749C45.6179 11.8919 45.062 11.9439 44.5131 12.0288C43.4084 12.1999 42.2633 11.7544 41.6888 10.7584L41.1954 9.90236C40.5293 8.74717 39.1158 8.3266 37.9626 8.94013L37.6687 9.09649C36.5155 9.71002 36.0168 11.1479 36.5282 12.3854L36.9306 13.3594C37.3668 14.4155 37.0553 15.6293 36.2923 16.4608C35.8879 16.9017 35.5079 17.3703 35.1559 17.8655C34.493 18.7982 33.3838 19.3282 32.3009 19.0512L31.582 18.8672C30.3322 18.5476 29.0565 19.2832 28.6551 20.5546L28.5602 20.8547Z" fill="#008080"/>
<path d="M22.2138 44.726C19.9341 47.741 15.7181 48.2868 12.7969 45.9451C9.87579 43.6034 9.35581 39.2611 11.6355 36.246C13.9152 33.231 18.1312 32.6852 21.0523 35.027C23.9735 37.3687 24.4934 41.711 22.2138 44.726ZM5.52926 31.663C4.91682 32.4731 5.01878 33.6392 5.76149 34.3213L6.20678 34.73C6.83689 35.3087 7.00108 36.2488 6.73787 37.0791C6.63356 37.4083 6.54472 37.7409 6.47143 38.0759C6.28652 38.9213 5.68785 39.6341 4.86896 39.7977L4.18952 39.9334C3.22252 40.1266 2.56552 41.0664 2.68718 42.0823L2.71323 42.2999C2.83488 43.3158 3.69347 44.0594 4.6765 44.0001L5.27576 43.9641C6.12581 43.9128 6.88631 44.4744 7.25609 45.2719C7.43894 45.6663 7.64513 46.0509 7.8749 46.4233C8.3305 47.1619 8.39558 48.1191 7.91926 48.8436L7.56502 49.3825C7.00585 50.2331 7.18201 51.3896 7.9668 52.0188L8.14954 52.1652C8.92348 52.7856 10.0266 52.6814 10.6804 51.9261L11.1026 51.4383C11.6667 50.7865 12.5758 50.6257 13.3727 50.9123C13.7729 51.0564 14.1793 51.1744 14.589 51.2675C15.407 51.453 16.0976 52.0764 16.2567 52.931L16.3867 53.6297C16.5734 54.6338 17.4768 55.3156 18.4529 55.1893L18.7017 55.157C19.6778 55.0307 20.393 54.1393 20.3372 53.1182L20.3024 52.483C20.2542 51.5994 20.7947 50.8096 21.5629 50.4285C21.9411 50.2408 22.3102 50.0295 22.6679 49.7948C23.369 49.3346 24.2709 49.2697 24.9597 49.7496L25.3565 50.0261C26.1685 50.5916 27.2626 50.4114 27.8666 49.6126L28.0092 49.4241C28.6216 48.614 28.5197 47.4479 27.777 46.7658L27.5395 46.5478C26.8946 45.9558 26.7391 44.9873 27.0283 44.1448C27.1913 43.6703 27.3212 43.1877 27.4187 42.7007C27.5916 41.8368 28.1954 41.1029 29.0287 40.9364L29.7072 40.8008C30.6742 40.6076 31.3312 39.6678 31.2095 38.6519L31.1835 38.4343C31.0618 37.4184 30.2032 36.6748 29.2202 36.7341L28.4665 36.7796C27.6317 36.8298 26.8816 36.2886 26.5041 35.5129C26.3184 35.1312 26.1103 34.7592 25.8801 34.399C25.4056 33.6568 25.3304 32.6826 25.8142 31.9468L25.9734 31.7047C26.5326 30.8541 26.3564 29.6975 25.5716 29.0683L25.3889 28.922C24.615 28.3015 23.5119 28.4058 22.858 29.1611L22.5855 29.4761C22.0284 30.1195 21.1337 30.2851 20.3432 30.013C19.9394 29.8739 19.5297 29.7608 19.1169 29.6732C18.2859 29.497 17.5801 28.8699 17.419 28.004L17.2807 27.26C17.094 26.2558 16.1904 25.574 15.2143 25.7004L14.9655 25.7326C13.9894 25.859 13.2744 26.7503 13.3302 27.7714L13.374 28.5751C13.4215 29.4465 12.8961 30.2284 12.1439 30.6157C11.7452 30.8211 11.3571 31.0529 10.9822 31.3112C10.2762 31.7977 9.35238 31.8763 8.64887 31.3863L8.1819 31.0608C7.36988 30.4953 6.27589 30.6757 5.67189 31.4745L5.52926 31.663Z" fill="#008080"/>
<g opacity="0.6">
<path d="M35.5633 44.6116C35.7786 45.7444 35.0577 46.7592 33.9531 46.8782C32.8485 46.9973 31.7786 46.1756 31.5633 45.0429C31.348 43.9101 32.0689 42.8953 33.1735 42.7762C34.2781 42.6571 35.348 43.4788 35.5633 44.6116ZM29.3237 45.3588C29.3816 45.6631 29.6614 45.8918 29.9615 45.8801L30.1414 45.8731C30.396 45.8632 30.638 46.0301 30.7701 46.2645C30.8225 46.3574 30.8787 46.4477 30.9386 46.5352C31.0898 46.7561 31.1287 47.0366 31.0015 47.2461L30.896 47.4199C30.7457 47.6673 30.8236 48.0089 31.0739 48.2012L31.1275 48.2424C31.3778 48.4346 31.7148 48.4115 31.898 48.1895L32.0097 48.0541C32.1681 47.8622 32.445 47.8208 32.6963 47.9134C32.8206 47.9591 32.9473 47.9978 33.0761 48.0288C33.3314 48.0904 33.5574 48.2821 33.6234 48.5391L33.6725 48.7302C33.75 49.0319 34.0425 49.2428 34.3393 49.2108L34.4084 49.2033C34.701 49.1718 34.8982 48.9145 34.8608 48.6131L34.8367 48.4185C34.8044 48.1585 34.9502 47.9304 35.1732 47.8223C35.2852 47.768 35.3926 47.7068 35.4952 47.6396C35.6999 47.5053 35.9766 47.4921 36.1985 47.6417L36.3799 47.7641C36.6406 47.9399 36.9728 47.894 37.1397 47.6591L37.1822 47.5992C37.3491 47.3642 37.2937 47.0206 37.0554 46.8132L36.9071 46.6842C36.7009 46.5047 36.6332 46.22 36.7019 45.9747C36.7357 45.8539 36.7624 45.7299 36.7817 45.6033C36.8194 45.3552 36.9851 45.1493 37.2295 45.1057L37.3703 45.0806C37.6584 45.0291 37.8368 44.7575 37.7798 44.4574L37.7664 44.3866C37.7085 44.0822 37.4287 43.8535 37.1286 43.8652L37.0326 43.8689C36.7721 43.8791 36.5255 43.7043 36.3959 43.4618C36.3229 43.3252 36.2415 43.1939 36.1526 43.0686C35.995 42.8463 35.9523 42.5601 36.0818 42.347L36.1872 42.1734C36.3374 41.926 36.2596 41.5843 36.0093 41.3921L35.9556 41.3509C35.7053 41.1587 35.3684 41.1818 35.1851 41.4038L35.0447 41.5741C34.8891 41.7626 34.6188 41.8061 34.3708 41.7199C34.2488 41.6774 34.1245 41.6419 33.9983 41.6135C33.7384 41.5552 33.5067 41.362 33.4396 41.101L33.4176 41.0151C33.34 40.7134 33.0475 40.5026 32.7508 40.5345L32.6817 40.542C32.389 40.5736 32.1918 40.8308 32.2292 41.1322L32.2449 41.2579C32.2767 41.5146 32.1348 41.7407 31.9163 41.8505C31.8047 41.9066 31.6977 41.9696 31.5957 42.0387C31.3905 42.1777 31.11 42.1934 30.8852 42.0417L30.692 41.9114C30.4313 41.7355 30.0991 41.7815 29.9322 42.0165L29.8896 42.0763C29.7227 42.3113 29.7782 42.6549 30.0165 42.8623L30.2041 43.0255C30.4074 43.2025 30.4764 43.4823 30.4123 43.7256C30.3783 43.8546 30.3523 43.987 30.3349 44.1223C30.3021 44.3771 30.135 44.5906 29.8854 44.6352L29.7197 44.6647C29.4317 44.7162 29.2532 44.9878 29.3103 45.2879L29.3237 45.3588Z" fill="#04ACAC"/>
</g>
<path d="M21.2344 24.2062C19.822 23.6728 19.0821 22.046 19.5817 20.5725C20.0814 19.099 21.6313 18.3369 23.0436 18.8703C24.456 19.4037 25.1959 21.0306 24.6963 22.5041C24.1966 23.9776 22.6467 24.7396 21.2344 24.2062ZM23.9719 15.8299C23.5924 15.6866 23.1714 15.8761 23.0121 16.2618L22.9167 16.493C22.7815 16.8202 22.4526 17.0059 22.11 17.0057C21.9742 17.0057 21.8392 17.0123 21.7051 17.0254C21.3669 17.0587 21.0255 16.9085 20.8603 16.5999L20.7233 16.3438C20.5283 15.9793 20.0949 15.8346 19.7323 16.0129L19.6546 16.0511C19.292 16.2294 19.1245 16.6695 19.2718 17.0575L19.3615 17.294C19.4888 17.6295 19.3766 18.007 19.1268 18.2573C19.0034 18.3811 18.8865 18.513 18.7771 18.6529C18.5602 18.9303 18.2123 19.0783 17.882 18.9789L17.6363 18.905C17.2486 18.7883 16.8406 19.0064 16.7063 19.4023L16.6751 19.4944C16.5427 19.8848 16.722 20.3154 17.0863 20.4823L17.3216 20.5901C17.636 20.7341 17.8116 21.0794 17.8064 21.4365C17.8037 21.6159 17.8115 21.7944 17.8291 21.9712C17.8641 22.3239 17.7201 22.6812 17.4223 22.8539L17.1788 22.9952C16.8288 23.1982 16.6901 23.6485 16.8614 24.0251L16.9051 24.1211C17.0764 24.4978 17.4992 24.6721 17.8721 24.5196L18.1041 24.4248C18.4268 24.2929 18.7895 24.4098 19.0292 24.6703C19.1472 24.7986 19.2728 24.9203 19.4057 25.0343C19.6663 25.2578 19.8052 25.6124 19.7143 25.9506L19.6619 26.1455C19.5548 26.5443 19.7612 26.9615 20.1354 27.1028L20.2237 27.1362C20.6032 27.2795 21.0242 27.09 21.1835 26.7044L21.2344 26.581C21.3726 26.2462 21.7133 26.0603 22.0636 26.0694C22.261 26.0746 22.4572 26.0654 22.6508 26.0426C22.9943 26.0022 23.3444 26.1517 23.5124 26.4658L23.6493 26.7215C23.8443 27.086 24.2777 27.2307 24.6403 27.0524L24.718 27.0143C25.0806 26.836 25.248 26.3958 25.1008 26.0079L24.9879 25.7104C24.8629 25.3809 24.9689 25.0102 25.2095 24.7595C25.3279 24.6362 25.4399 24.5051 25.5446 24.3666C25.7604 24.0812 26.1134 23.9269 26.4489 24.0279L26.5593 24.0612C26.947 24.1779 27.355 23.9597 27.4893 23.5638L27.5205 23.4717C27.6529 23.0813 27.4736 22.6507 27.1093 22.4838L26.9574 22.4142C26.6469 22.272 26.4714 21.9331 26.4721 21.5804C26.4724 21.4002 26.4623 21.221 26.4424 21.0437C26.4022 20.6869 26.5457 20.3231 26.8474 20.148L27.1067 19.9977C27.4567 19.7947 27.5954 19.3443 27.4241 18.9676L27.3804 18.8717C27.2091 18.495 26.7864 18.3208 26.4134 18.4732L26.1199 18.5932C25.8017 18.7232 25.4437 18.6114 25.2038 18.358C25.0766 18.2238 24.9409 18.0971 24.7971 17.9792C24.5261 17.757 24.3793 17.3953 24.4721 17.0499L24.5337 16.8205C24.6408 16.4218 24.4344 16.0046 24.0602 15.8633L23.9719 15.8299Z" fill="#04ACAC"/>
</svg>
