<svg width="64" height="64" viewBox="0 0 64 64" fill="none" xmlns="http://www.w3.org/2000/svg">
<path d="M38 32C39.933 32 41.5 30.433 41.5 28.5C41.5 26.567 39.933 25 38 25C36.067 25 34.5 26.567 34.5 28.5C34.5 30.433 36.067 32 38 32Z" fill="#008080"/>
<path d="M21.076 50.1C20.8767 50.1018 20.682 50.04 20.5202 49.9237C20.3584 49.8073 20.2378 49.6425 20.176 49.453C20.0234 48.9622 19.8259 48.4866 19.586 48.032C19.4942 47.8538 19.4619 47.6508 19.4937 47.4529C19.5256 47.255 19.6199 47.0724 19.763 46.932V46.932C19.9358 46.7586 20.0329 46.5238 20.0329 46.279C20.0329 46.0342 19.9358 45.7994 19.763 45.626L18.375 44.238C18.2016 44.0652 17.9668 43.9681 17.722 43.9681C17.4772 43.9681 17.2424 44.0652 17.069 44.238C16.9286 44.3811 16.746 44.4754 16.5481 44.5073C16.3502 44.5391 16.1472 44.5068 15.969 44.415C15.5144 44.1751 15.0388 43.9776 14.548 43.825C14.3585 43.7632 14.1937 43.6426 14.0773 43.4808C13.961 43.319 13.8992 43.1243 13.901 42.925C13.9013 42.6805 13.8046 42.4458 13.6321 42.2724C13.4597 42.099 13.2255 42.0011 12.981 42H11.019C10.7739 42 10.5389 42.0974 10.3656 42.2706C10.1923 42.4439 10.095 42.6789 10.095 42.924V42.944C10.0967 43.1374 10.0367 43.3262 9.92375 43.4832C9.81083 43.6402 9.65085 43.7571 9.467 43.817C8.96948 43.972 8.48741 44.1729 8.027 44.417C7.84877 44.5088 7.64584 44.5411 7.44791 44.5093C7.24998 44.4774 7.06744 44.3831 6.927 44.24V44.24C6.75362 44.0672 6.5188 43.9701 6.274 43.9701C6.0292 43.9701 5.79438 44.0672 5.621 44.24L4.235 45.623C4.06218 45.7964 3.96515 46.0312 3.96515 46.276C3.96515 46.5208 4.06218 46.7556 4.235 46.929V46.929C4.37806 47.0694 4.47242 47.252 4.50427 47.4499C4.53612 47.6478 4.50379 47.8508 4.412 48.029C4.17213 48.4836 3.97463 48.9592 3.822 49.45C3.76018 49.6395 3.63961 49.8043 3.47779 49.9207C3.31597 50.037 3.12129 50.0988 2.922 50.097C2.67763 50.0975 2.44343 50.1948 2.27063 50.3676C2.09784 50.5404 2.00053 50.7746 2 51.019V52.981C2 53.2261 2.09735 53.4611 2.27063 53.6344C2.44392 53.8076 2.67894 53.905 2.924 53.905C3.12329 53.9032 3.31796 53.965 3.47979 54.0813C3.64161 54.1977 3.76218 54.3625 3.824 54.552C3.97663 55.0428 4.17413 55.5184 4.414 55.973C4.50579 56.1512 4.53812 56.3542 4.50627 56.5521C4.47442 56.75 4.38006 56.9326 4.237 57.073V57.073C4.06418 57.2464 3.96715 57.4812 3.96715 57.726C3.96715 57.9708 4.06418 58.2056 4.237 58.379L5.625 59.767C5.79838 59.9398 6.0332 60.0369 6.278 60.0369C6.5228 60.0369 6.75762 59.9398 6.931 59.767V59.767C7.07144 59.6239 7.25398 59.5296 7.45191 59.4977C7.64984 59.4659 7.85277 59.4982 8.031 59.59C8.48555 59.8299 8.96123 60.0274 9.452 60.18C9.64147 60.2418 9.80632 60.3624 9.92266 60.5242C10.039 60.686 10.1008 60.8807 10.099 61.08C10.099 61.3251 10.1964 61.5601 10.3696 61.7334C10.5429 61.9067 10.7779 62.004 11.023 62.004H12.985C13.2301 62.004 13.4651 61.9067 13.6384 61.7334C13.8117 61.5601 13.909 61.3251 13.909 61.08C13.9072 60.8807 13.969 60.686 14.0853 60.5242C14.2017 60.3624 14.3665 60.2418 14.556 60.18C15.0468 60.0274 15.5224 59.8299 15.977 59.59C16.1552 59.4982 16.3582 59.4659 16.5561 59.4977C16.754 59.5296 16.9366 59.6239 17.077 59.767C17.2504 59.9398 17.4852 60.0369 17.73 60.0369C17.9748 60.0369 18.2096 59.9398 18.383 59.767L19.771 58.379C19.9438 58.2056 20.0409 57.9708 20.0409 57.726C20.0409 57.4812 19.9438 57.2464 19.771 57.073V57.073C19.6279 56.9326 19.5336 56.75 19.5017 56.5521C19.4699 56.3542 19.5022 56.1512 19.594 55.973C19.8381 55.5126 20.039 55.0305 20.194 54.533C20.2538 54.3491 20.3707 54.189 20.5277 54.076C20.6847 53.9631 20.8736 53.9032 21.067 53.905H21.087C21.3301 53.9021 21.5624 53.8035 21.7333 53.6305C21.9042 53.4575 22 53.2242 22 52.981V51.019C21.9987 50.7748 21.9007 50.5411 21.7276 50.3689C21.5545 50.1967 21.3202 50.1 21.076 50.1V50.1ZM12 57C11.0111 57 10.0444 56.7068 9.22215 56.1573C8.3999 55.6079 7.75904 54.827 7.3806 53.9134C7.00216 52.9998 6.90315 51.9945 7.09607 51.0245C7.289 50.0546 7.7652 49.1637 8.46447 48.4645C9.16373 47.7652 10.0546 47.289 11.0245 47.0961C11.9945 46.9031 12.9998 47.0022 13.9134 47.3806C14.827 47.759 15.6079 48.3999 16.1573 49.2221C16.7068 50.0444 17 51.0111 17 52C17 53.3261 16.4732 54.5979 15.5355 55.5355C14.5979 56.4732 13.3261 57 12 57V57Z" fill="#008080"/>
<path d="M57.163 10.4318L55 6.04883L52.837 10.4318L48 11.1348L51.5 14.5458L50.674 19.3638L55 17.0888L59.326 19.3638L58.5 14.5458L62 11.1348L57.163 10.4318Z" fill="#008080"/>
<path d="M56 1H54V4H56V1Z" fill="#008080"/>
<path d="M61.3537 3.2322L59.2324 5.35352L60.6466 6.76773L62.768 4.64641L61.3537 3.2322Z" fill="#008080"/>
<path d="M48.6466 3.23227L47.2324 4.64648L49.3537 6.7678L50.768 5.35359L48.6466 3.23227Z" fill="#008080"/>
<path d="M10.0003 11.465L7.44531 13.165L8.55531 14.829L11.5553 12.829C11.6918 12.7379 11.8038 12.6147 11.8814 12.4701C11.959 12.3255 11.9998 12.1641 12.0003 12V6H10.0003V11.465Z" fill="#008080"/>
<path d="M11.0002 1C9.43878 1.00027 7.89913 1.36618 6.50453 2.06842C5.10994 2.77065 3.89916 3.7897 2.96918 5.04395C2.03919 6.2982 1.41583 7.7528 1.14903 9.29126C0.882219 10.8297 0.97938 12.4093 1.43273 13.9034C1.88607 15.3976 2.683 16.7648 3.7597 17.8956C4.8364 19.0265 6.16294 19.8894 7.63308 20.4154C9.10323 20.9415 10.6761 21.1159 12.2258 20.9248C13.7755 20.7337 15.2589 20.1824 16.5572 19.315L15.4432 17.653C13.9762 18.6358 12.2253 19.1057 10.4634 18.9894C8.70147 18.873 7.02753 18.177 5.70251 17.0099C4.37749 15.8427 3.47585 14.27 3.13812 12.5368C2.8004 10.8037 3.04557 9.00747 3.83542 7.42822C4.62527 5.84896 5.91542 4.57539 7.50476 3.80603C9.0941 3.03667 10.8933 2.81476 12.622 3.17487C14.3506 3.53499 15.9116 4.4569 17.0615 5.79691C18.2114 7.13691 18.8857 8.81972 18.9792 10.583H16.5002L20.0002 16.417L23.5002 10.583H20.9792C20.8717 8.0074 19.7737 5.5728 17.9144 3.78726C16.0551 2.00172 13.578 1.00317 11.0002 1V1Z" fill="#008080"/>
<path d="M61 57H59V59H61V57Z" fill="#008080"/>
<path d="M63 59H61V61H63V59Z" fill="#008080"/>
<path d="M61 61H59V63H61V61Z" fill="#008080"/>
<path d="M59 59H57V61H59V59Z" fill="#008080"/>
<path d="M60 28L55 22L50 28H53C53 47.165 34 48.94 24 48.551V56.264C34.933 56.143 57 52.828 57 28H60Z" fill="#008080"/>
<path d="M45 35C45 34.2044 44.6839 33.4413 44.1213 32.8787C43.5587 32.3161 42.7956 32 42 32H38L39.5 38.75L38 41L36.5 38.75L38 32H34C33.2044 32 32.4413 32.3161 31.8787 32.8787C31.3161 33.4413 31 34.2044 31 35V46.37C35.729 45.921 41.063 44.67 45 41.624V35Z" fill="#008080"/>
</svg>
