<svg width="44" height="44" viewBox="0 0 44 44" fill="none" xmlns="http://www.w3.org/2000/svg">
<path d="M22 0H20.0159V10.4616H23.9828V4.07672C33.0729 5.06642 40.0304 12.7224 40.0304 22.0001C40.0304 31.9438 31.9412 40.0328 22 40.0328C12.0584 40.0328 3.96964 31.9438 3.96964 22.0001C3.96964 17.9304 5.29204 14.0903 7.79247 10.8959L8.49162 10.0053L5.36615 7.55934L4.66853 8.45011C1.61436 12.3497 0 17.0357 0 22C0 34.1302 9.86865 44 22 44C34.1302 44 44 34.1317 44 22C44 9.86865 34.1302 0 22 0Z" fill="#008080"/>
<path d="M18.838 25.3714C19.5568 26.2331 20.5667 26.7623 21.6792 26.8616C21.8077 26.8738 21.936 26.8799 22.0622 26.8799C24.2086 26.8799 26.0429 25.2025 26.2355 23.064C26.3364 21.95 25.9969 20.8616 25.2791 19.9988C24.5603 19.1361 23.5511 18.6062 22.4356 18.5045C22.0689 18.4725 21.697 18.4919 21.3018 18.5696L9.18457 8.30078L18.0857 21.3817C17.9737 21.7074 17.9056 22.0114 17.8788 22.3073C17.778 23.421 18.1186 24.5097 18.838 25.3714Z" fill="#008080"/>
</svg>
